<svg version="1.1" id="Layer_1" xmlns="http://www.w3.org/2000/svg" xmlns:xlink="http://www.w3.org/1999/xlink" x="0px" y="0px"
	 width="100%" viewBox="0 0 1080 1080" enable-background="new 0 0 1080 1080" xml:space="preserve">
<path fill="#76A5AF" opacity="1.000000" stroke="none" 
	d="
M1.000000,507.000000 
	C1.000000,338.355469 1.000000,169.710922 1.000000,1.033191 
	C360.930664,1.033191 720.861328,1.033191 1080.895996,1.033191 
	C1080.895996,360.883392 1080.895996,720.766846 1080.895996,1081.000000 
	C912.638794,1081.000000 744.277344,1081.000000 575.323364,1080.748779 
	C574.752686,1080.309082 574.774536,1080.120361 575.263550,1079.977783 
	C583.488586,1079.287720 591.257751,1078.653564 599.002380,1077.797729 
	C634.729126,1073.850098 669.779480,1066.573120 703.957947,1055.461792 
	C791.257935,1027.080444 866.676880,979.734131 930.160461,913.350952 
	C969.428955,872.288940 1001.519531,826.213684 1025.956787,775.009216 
	C1067.327393,688.323120 1084.666016,597.043518 1077.008911,501.085602 
	C1069.784302,410.551239 1042.149414,326.849396 992.778687,250.682816 
	C933.638794,159.444962 854.192871,91.534813 754.432800,48.033718 
	C662.441956,7.920462 566.500183,-5.388239 466.999695,8.277881 
	C379.661346,20.273561 299.906403,51.840885 228.181885,103.012611 
	C150.611282,158.355209 91.337006,229.235718 50.920338,315.654083 
	C25.995955,368.947113 10.418219,424.889954 4.038156,483.391449 
	C3.178099,491.277618 2.020058,499.131287 1.000000,507.000000 
z"/>
<path fill="#76A5AF" opacity="1.000000" stroke="none" 
	d="
M506.000000,1081.000000 
	C337.737152,1081.000000 169.474319,1081.000000 1.000000,1081.000000 
	C1.000000,910.975159 1.000000,740.950195 1.269032,570.780273 
	C1.783912,572.437683 2.069876,574.235657 2.269358,576.043213 
	C4.113787,592.755859 5.332389,609.564148 7.885654,626.167358 
	C17.580900,689.212830 38.217793,748.572693 69.335823,804.249573 
	C109.240616,875.647705 162.727158,934.917786 229.351517,982.274048 
	C275.332367,1014.956970 325.290253,1039.842285 379.244110,1056.367310 
	C395.764648,1061.427368 412.768372,1064.909668 429.712280,1069.280884 
	C430.545685,1069.564453 431.217621,1069.681641 432.277100,1069.938232 
	C436.941345,1070.755615 441.218079,1071.433716 445.656372,1072.283936 
	C446.500061,1072.555176 447.182129,1072.654541 448.214661,1072.891602 
	C449.800568,1073.173584 451.036011,1073.317627 452.389771,1073.605469 
	C452.967255,1073.755859 453.426422,1073.762329 454.233459,1073.905029 
	C455.806732,1074.187866 457.032166,1074.334473 458.377319,1074.618896 
	C458.945770,1074.733765 459.394440,1074.711060 460.231476,1074.815186 
	C462.493073,1075.133057 464.366302,1075.324097 466.365845,1075.652344 
	C466.952667,1075.775269 467.413086,1075.761108 468.260315,1075.864990 
	C470.502747,1076.174927 472.358398,1076.366699 474.346344,1076.693604 
	C474.949921,1076.813843 475.421143,1076.798828 476.307098,1076.906494 
	C481.913544,1077.507202 487.105286,1077.985229 492.509979,1078.632080 
	C493.772369,1078.790527 494.821808,1078.780273 496.306396,1078.867798 
	C499.932098,1079.143799 503.122711,1079.322021 506.292206,1079.887207 
	C506.180756,1080.515991 506.090363,1080.757935 506.000000,1081.000000 
z"/>
<path fill="#E5E3D9" opacity="1.000000" stroke="none" 
	d="
M429.550812,1069.114502 
	C412.768372,1064.909668 395.764648,1061.427368 379.244110,1056.367310 
	C325.290253,1039.842285 275.332367,1014.956970 229.351517,982.274048 
	C162.727158,934.917786 109.240616,875.647705 69.335823,804.249573 
	C38.217793,748.572693 17.580900,689.212830 7.885654,626.167358 
	C5.332389,609.564148 4.113787,592.755859 2.269358,576.043213 
	C2.069876,574.235657 1.783912,572.437683 1.269032,570.317627 
	C1.000000,549.312439 1.000000,528.624878 1.000000,507.468658 
	C2.020058,499.131287 3.178099,491.277618 4.038156,483.391449 
	C10.418219,424.889954 25.995955,368.947113 50.920338,315.654083 
	C91.337006,229.235718 150.611282,158.355209 228.181885,103.012611 
	C299.906403,51.840885 379.661346,20.273561 466.999695,8.277881 
	C566.500183,-5.388239 662.441956,7.920462 754.432800,48.033718 
	C854.192871,91.534813 933.638794,159.444962 992.778687,250.682816 
	C1042.149414,326.849396 1069.784302,410.551239 1077.008911,501.085602 
	C1084.666016,597.043518 1067.327393,688.323120 1025.956787,775.009216 
	C1001.519531,826.213684 969.428955,872.288940 930.160461,913.350952 
	C866.676880,979.734131 791.257935,1027.080444 703.957947,1055.461792 
	C669.779480,1066.573120 634.729126,1073.850098 599.002380,1077.797729 
	C591.257751,1078.653564 583.488586,1079.287720 574.896851,1079.957397 
	C551.479736,1079.760620 528.896484,1079.630371 506.313293,1079.500244 
	C503.122711,1079.322021 499.932098,1079.143799 496.071777,1078.734985 
	C494.367065,1078.490723 493.332031,1078.476929 492.297028,1078.463257 
	C487.105286,1077.985229 481.913544,1077.507202 476.157715,1076.804688 
	C475.133789,1076.573120 474.673889,1076.565796 474.214020,1076.558350 
	C472.358398,1076.366699 470.502747,1076.174927 468.114410,1075.768555 
	C467.134308,1075.541016 466.686920,1075.528076 466.239502,1075.515137 
	C464.366302,1075.324097 462.493073,1075.133057 460.088287,1074.727051 
	C459.123688,1074.501709 458.690613,1074.491455 458.257568,1074.481201 
	C457.032166,1074.334473 455.806732,1074.187866 454.091553,1073.804321 
	C453.158356,1073.532104 452.714905,1073.496948 452.271454,1073.461670 
	C451.036011,1073.317627 449.800568,1073.173584 447.940552,1072.756348 
	C446.708923,1072.359253 446.101868,1072.235596 445.494812,1072.111816 
	C441.218079,1071.433716 436.941345,1070.755615 432.008667,1069.794922 
	C430.752075,1069.379639 430.151459,1069.247070 429.550812,1069.114502 
M932.776489,193.735657 
	C900.597351,157.513840 864.200378,126.217514 823.398987,100.063057 
	C742.356384,48.113281 653.688477,20.477482 557.527283,17.135775 
	C484.404297,14.594671 413.718506,26.862776 345.800964,54.050465 
	C267.535217,85.380600 200.592194,132.917557 144.884140,196.235687 
	C107.241280,239.020798 77.291603,286.668671 55.262768,339.190674 
	C25.826082,409.374756 12.073502,482.494232 14.986602,558.682373 
	C16.488791,597.969910 21.548817,636.728760 31.666117,674.726685 
	C58.676643,776.170898 111.135666,862.194397 188.931870,932.680969 
	C235.862457,975.202026 288.924866,1008.032776 347.817657,1031.202881 
	C424.829193,1061.501587 504.687775,1072.636841 587.121216,1065.357910 
	C659.534912,1058.963623 727.712708,1038.269409 791.320923,1003.288147 
	C876.160095,956.630859 943.726074,891.690857 992.768555,808.086487 
	C1055.955200,700.370056 1077.688721,584.405579 1058.693970,461.129730 
	C1043.114624,360.020050 1000.663147,271.189270 932.776489,193.735657 
z"/>
<path fill="#E4E2D8" opacity="1.000000" stroke="none" 
	d="
M506.292206,1079.887207 
	C528.896484,1079.630371 551.479736,1079.760620 574.429688,1079.911377 
	C574.774536,1080.120361 574.752686,1080.309082 574.865356,1080.748779 
	C552.312439,1081.000000 529.624878,1081.000000 506.468658,1081.000000 
	C506.090363,1080.757935 506.180756,1080.515991 506.292206,1079.887207 
z"/>
<path fill="#E4E2D8" opacity="1.000000" stroke="none" 
	d="
M492.509979,1078.632080 
	C493.332031,1078.476929 494.367065,1078.490723 495.636658,1078.637207 
	C494.821808,1078.780273 493.772369,1078.790527 492.509979,1078.632080 
z"/>
<path fill="#E4E2D8" opacity="1.000000" stroke="none" 
	d="
M429.712280,1069.280884 
	C430.151459,1069.247070 430.752075,1069.379639 431.621155,1069.655518 
	C431.217621,1069.681641 430.545685,1069.564453 429.712280,1069.280884 
z"/>
<path fill="#E4E2D8" opacity="1.000000" stroke="none" 
	d="
M445.656372,1072.283936 
	C446.101868,1072.235596 446.708923,1072.359253 447.590088,1072.618408 
	C447.182129,1072.654541 446.500061,1072.555176 445.656372,1072.283936 
z"/>
<path fill="#E4E2D8" opacity="1.000000" stroke="none" 
	d="
M452.389771,1073.605469 
	C452.714905,1073.496948 453.158356,1073.532104 453.743713,1073.667969 
	C453.426422,1073.762329 452.967255,1073.755859 452.389771,1073.605469 
z"/>
<path fill="#E4E2D8" opacity="1.000000" stroke="none" 
	d="
M458.377319,1074.618896 
	C458.690613,1074.491455 459.123688,1074.501709 459.699921,1074.600098 
	C459.394440,1074.711060 458.945770,1074.733765 458.377319,1074.618896 
z"/>
<path fill="#E4E2D8" opacity="1.000000" stroke="none" 
	d="
M466.365845,1075.652344 
	C466.686920,1075.528076 467.134308,1075.541016 467.727631,1075.650391 
	C467.413086,1075.761108 466.952667,1075.775269 466.365845,1075.652344 
z"/>
<path fill="#E4E2D8" opacity="1.000000" stroke="none" 
	d="
M474.346344,1076.693604 
	C474.673889,1076.565796 475.133789,1076.573120 475.743042,1076.682129 
	C475.421143,1076.798828 474.949921,1076.813843 474.346344,1076.693604 
z"/>
<path fill="#77A6AF" opacity="1.000000" stroke="none" 
	d="
M933.004578,194.007645 
	C1000.663147,271.189270 1043.114624,360.020050 1058.693970,461.129730 
	C1077.688721,584.405579 1055.955200,700.370056 992.768555,808.086487 
	C943.726074,891.690857 876.160095,956.630859 791.320923,1003.288147 
	C727.712708,1038.269409 659.534912,1058.963623 587.121216,1065.357910 
	C504.687775,1072.636841 424.829193,1061.501587 347.817657,1031.202881 
	C288.924866,1008.032776 235.862457,975.202026 188.931870,932.680969 
	C111.135666,862.194397 58.676643,776.170898 31.666117,674.726685 
	C21.548817,636.728760 16.488791,597.969910 14.986602,558.682373 
	C12.073502,482.494232 25.826082,409.374756 55.262768,339.190674 
	C77.291603,286.668671 107.241280,239.020798 144.884140,196.235687 
	C200.592194,132.917557 267.535217,85.380600 345.800964,54.050465 
	C413.718506,26.862776 484.404297,14.594671 557.527283,17.135775 
	C653.688477,20.477482 742.356384,48.113281 823.398987,100.063057 
	C864.200378,126.217514 900.597351,157.513840 933.004578,194.007645 
M1003.968262,610.589844 
	C1007.962830,582.145386 1009.584045,553.649109 1008.245056,524.871277 
	C1006.265320,482.323669 999.960571,440.553253 986.511475,400.171143 
	C942.067078,266.722137 855.405823,170.959106 727.526367,112.611237 
	C675.346069,88.802811 620.087402,76.872284 563.081848,73.616776 
	C541.890747,72.406586 520.442932,73.648674 499.228790,75.284470 
	C444.171570,79.529861 391.590942,93.796776 341.711029,117.452278 
	C254.840027,158.650787 186.470383,220.489182 136.840454,302.873535 
	C97.460472,368.243256 76.242126,439.397339 71.370354,515.304138 
	C69.005783,552.146240 71.862144,588.943176 78.613914,625.283630 
	C97.856918,728.856323 146.329559,816.401428 223.661972,887.898315 
	C263.576202,924.800720 308.740662,953.768738 358.860535,974.694336 
	C435.543793,1006.710449 515.354065,1018.051514 597.790222,1007.328369 
	C720.438049,991.374451 821.567383,935.193726 900.996399,840.715820 
	C956.887390,774.235535 990.646484,697.338318 1003.968262,610.589844 
z"/>
<path fill="#E4E2D8" opacity="1.000000" stroke="none" 
	d="
M1003.912415,611.026794 
	C990.646484,697.338318 956.887390,774.235535 900.996399,840.715820 
	C821.567383,935.193726 720.438049,991.374451 597.790222,1007.328369 
	C515.354065,1018.051514 435.543793,1006.710449 358.860535,974.694336 
	C308.740662,953.768738 263.576202,924.800720 223.661972,887.898315 
	C146.329559,816.401428 97.856918,728.856323 78.613914,625.283630 
	C71.862144,588.943176 69.005783,552.146240 71.370354,515.304138 
	C76.242126,439.397339 97.460472,368.243256 136.840454,302.873535 
	C186.470383,220.489182 254.840027,158.650787 341.711029,117.452278 
	C391.590942,93.796776 444.171570,79.529861 499.228790,75.284470 
	C520.442932,73.648674 541.890747,72.406586 563.081848,73.616776 
	C620.087402,76.872284 675.346069,88.802811 727.526367,112.611237 
	C855.405823,170.959106 942.067078,266.722137 986.511475,400.171143 
	C999.960571,440.553253 1006.265320,482.323669 1008.245056,524.871277 
	C1009.584045,553.649109 1007.962830,582.145386 1003.912415,611.026794 
M992.562195,480.141022 
	C990.696411,469.306671 989.204712,458.392242 986.904968,447.650818 
	C970.268005,369.942108 935.984375,300.987366 883.590515,241.186234 
	C834.246033,184.865585 774.631775,143.014404 704.857666,115.832779 
	C647.763428,93.590759 588.537903,83.737930 527.241089,85.347473 
	C488.493042,86.364929 450.511230,92.032837 413.443329,102.909302 
	C325.397278,128.743744 251.025192,176.335648 191.811417,246.497208 
	C119.392311,332.305573 82.357727,431.462677 83.064079,544.138855 
	C83.541130,620.236389 101.537529,692.000183 137.787704,758.969666 
	C177.565262,832.455627 233.323944,891.020264 304.908813,934.013794 
	C384.223206,981.649658 470.373993,1002.880005 562.893005,998.496765 
	C609.411194,996.292725 654.591980,987.432373 698.006714,970.929749 
	C809.444824,928.570679 893.211792,854.408936 947.682434,748.364197 
	C990.873596,664.278503 1005.277466,574.780640 992.562195,480.141022 
z"/>
<path fill="#76A5AF" opacity="1.000000" stroke="none" 
	d="
M992.640137,480.581055 
	C1005.277466,574.780640 990.873596,664.278503 947.682434,748.364197 
	C893.211792,854.408936 809.444824,928.570679 698.006714,970.929749 
	C654.591980,987.432373 609.411194,996.292725 562.893005,998.496765 
	C470.373993,1002.880005 384.223206,981.649658 304.908813,934.013794 
	C233.323944,891.020264 177.565262,832.455627 137.787704,758.969666 
	C101.537529,692.000183 83.541130,620.236389 83.064079,544.138855 
	C82.357727,431.462677 119.392311,332.305573 191.811417,246.497208 
	C251.025192,176.335648 325.397278,128.743744 413.443329,102.909302 
	C450.511230,92.032837 488.493042,86.364929 527.241089,85.347473 
	C588.537903,83.737930 647.763428,93.590759 704.857666,115.832779 
	C774.631775,143.014404 834.246033,184.865585 883.590515,241.186234 
	C935.984375,300.987366 970.268005,369.942108 986.904968,447.650818 
	C989.204712,458.392242 990.696411,469.306671 992.640137,480.581055 
M255.968567,630.751343 
	C269.133728,630.767517 282.298920,630.790527 295.464081,630.796936 
	C302.448914,630.800293 302.241028,630.761108 303.119873,623.774597 
	C308.339325,582.282104 320.049072,542.940491 342.560211,507.323334 
	C359.565033,480.418182 381.649963,458.961761 410.670990,445.173523 
	C411.666107,444.700714 412.778046,444.473694 413.835510,444.132111 
	C412.762115,446.361328 411.266754,447.625732 409.625397,448.658051 
	C396.112488,457.157166 384.095703,467.360229 374.177124,479.912537 
	C340.255127,522.842163 329.291229,573.124084 327.345581,626.297791 
	C327.215057,629.865112 328.798767,631.096436 332.136627,630.815063 
	C333.625702,630.689636 335.134430,630.799561 336.634247,630.799561 
	C497.780151,630.799866 658.926025,630.799866 820.071960,630.799683 
	C821.405151,630.799683 822.749390,630.686096 824.069336,630.817871 
	C827.709900,631.181335 829.103699,629.792603 828.926514,625.982239 
	C827.939270,604.751099 825.097229,583.823669 818.669922,563.516785 
	C798.393127,499.452423 757.895203,451.071167 700.264587,418.138733 
	C610.088806,366.608612 515.556824,361.063751 419.305420,399.420502 
	C356.077454,424.617218 307.541656,467.436249 276.709015,528.870056 
	C261.548523,559.077271 253.471542,591.213501 253.142517,625.126892 
	C253.124725,626.960510 254.404755,628.806763 255.968567,630.751343 
M452.500000,685.908386 
	C591.309265,685.908447 730.118469,685.909119 868.927734,685.903870 
	C871.593201,685.903809 874.286804,686.068848 876.918945,685.753662 
	C884.885620,684.799683 890.605469,680.611755 893.376587,673.032471 
	C896.126465,665.511169 894.737183,658.628967 889.273254,652.633301 
	C884.329529,647.208374 877.930115,646.231506 871.042236,646.232422 
	C650.914062,646.262207 430.785889,646.254822 210.657715,646.281921 
	C208.005447,646.282227 205.290833,646.364014 202.711456,646.909668 
	C189.444382,649.715942 182.999268,664.662048 190.048126,676.211365 
	C194.484833,683.480774 201.203598,685.978577 209.542389,685.968079 
	C290.194824,685.866272 370.847443,685.907715 452.500000,685.908386 
M757.500000,697.815613 
	C667.376526,697.811035 577.253113,697.804749 487.129669,697.811218 
	C484.800751,697.811401 482.434692,697.713196 480.150024,698.070557 
	C473.827606,699.059570 469.640320,704.345215 469.820343,710.802856 
	C470.001465,717.299133 474.430481,722.244568 480.837952,722.946960 
	C482.816589,723.163818 484.830780,723.093018 486.828674,723.093079 
	C613.601257,723.098755 740.373779,723.098633 867.146362,723.094238 
	C868.978149,723.094177 870.820923,723.151550 872.639587,722.980225 
	C878.005554,722.474487 881.596741,719.523682 883.311401,714.505493 
	C885.028381,709.480042 884.321289,704.462769 879.903442,701.458069 
	C876.839966,699.374512 872.646118,697.980530 868.945984,697.955750 
	C832.132019,697.708923 795.315674,697.811401 757.500000,697.815613 
M524.815186,364.780121 
	C537.748901,371.519043 550.513184,369.557190 559.808899,359.401642 
	C568.058472,350.389038 569.201843,335.858215 562.144775,325.610992 
	C555.353516,315.749878 545.757690,311.596588 533.996826,313.778290 
	C522.447205,315.920837 515.021179,323.100403 512.167480,334.504913 
	C509.227814,346.253021 513.675537,356.867188 524.815186,364.780121 
M715.877991,296.807251 
	C712.780884,285.947266 705.661255,278.621643 695.432617,273.051819 
	C695.432617,274.440186 695.263367,275.123383 695.457886,275.679291 
	C698.620544,284.717377 697.856506,293.777954 695.209229,302.687988 
	C692.319946,312.412079 688.440369,321.868408 686.007568,331.692841 
	C684.196716,339.005859 682.865723,346.790955 683.335022,354.238892 
	C684.205750,368.056091 693.247131,376.669525 705.025940,383.028992 
	C701.140259,373.674225 701.621826,364.280121 704.175720,355.029846 
	C706.651489,346.062592 709.644470,337.225464 712.722595,328.440582 
	C716.244019,318.390778 718.490662,308.283844 715.877991,296.807251 
M664.925903,301.945648 
	C664.925903,310.048035 664.925903,318.150452 664.925903,325.934875 
	C677.765686,321.407227 687.649048,304.883759 685.250793,288.452332 
	C683.944153,279.499512 680.662476,270.810547 677.999878,262.085449 
	C673.507385,247.363754 667.299194,232.848511 674.785278,216.181931 
	C664.533936,221.561279 657.403015,228.112366 653.759399,237.951614 
	C649.520325,249.399002 651.806885,260.514526 655.487976,271.612274 
	C658.731750,281.391418 661.671570,291.271393 664.925903,301.945648 
M208.395691,478.065735 
	C211.380737,486.493713 213.988068,495.079712 217.433762,503.314972 
	C223.555557,517.946045 232.313873,531.857849 227.706299,549.136902 
	C242.668015,541.046021 249.357437,523.606628 243.486191,506.688477 
	C240.223221,497.286133 235.510300,488.387848 231.467773,479.254913 
	C227.668686,470.671967 224.358459,461.951447 224.967773,452.321930 
	C225.124756,449.841278 225.686127,447.386169 226.191956,444.063965 
	C214.066925,452.647339 207.636749,463.032837 208.395691,478.065735 
z"/>
<path fill="#E9E5DA" opacity="1.000000" stroke="none" 
	d="
M255.524597,630.699219 
	C254.404755,628.806763 253.124725,626.960510 253.142517,625.126892 
	C253.471542,591.213501 261.548523,559.077271 276.709015,528.870056 
	C307.541656,467.436249 356.077454,424.617218 419.305420,399.420502 
	C515.556824,361.063751 610.088806,366.608612 700.264587,418.138733 
	C757.895203,451.071167 798.393127,499.452423 818.669922,563.516785 
	C825.097229,583.823669 827.939270,604.751099 828.926514,625.982239 
	C829.103699,629.792603 827.709900,631.181335 824.069336,630.817871 
	C822.749390,630.686096 821.405151,630.799683 820.071960,630.799683 
	C658.926025,630.799866 497.780151,630.799866 336.634247,630.799561 
	C335.134430,630.799561 333.625702,630.689636 332.136627,630.815063 
	C328.798767,631.096436 327.215057,629.865112 327.345581,626.297791 
	C329.291229,573.124084 340.255127,522.842163 374.177124,479.912537 
	C384.095703,467.360229 396.112488,457.157166 409.625397,448.658051 
	C411.266754,447.625732 412.762115,446.361328 413.835510,444.132111 
	C412.778046,444.473694 411.666107,444.700714 410.670990,445.173523 
	C381.649963,458.961761 359.565033,480.418182 342.560211,507.323334 
	C320.049072,542.940491 308.339325,582.282104 303.119873,623.774597 
	C302.241028,630.761108 302.448914,630.800293 295.464081,630.796936 
	C282.298920,630.790527 269.133728,630.767517 255.524597,630.699219 
z"/>
<path fill="#E7E4D9" opacity="1.000000" stroke="none" 
	d="
M452.000000,685.908325 
	C370.847443,685.907715 290.194824,685.866272 209.542389,685.968079 
	C201.203598,685.978577 194.484833,683.480774 190.048126,676.211365 
	C182.999268,664.662048 189.444382,649.715942 202.711456,646.909668 
	C205.290833,646.364014 208.005447,646.282227 210.657715,646.281921 
	C430.785889,646.254822 650.914062,646.262207 871.042236,646.232422 
	C877.930115,646.231506 884.329529,647.208374 889.273254,652.633301 
	C894.737183,658.628967 896.126465,665.511169 893.376587,673.032471 
	C890.605469,680.611755 884.885620,684.799683 876.918945,685.753662 
	C874.286804,686.068848 871.593201,685.903809 868.927734,685.903870 
	C730.118469,685.909119 591.309265,685.908447 452.000000,685.908325 
z"/>
<path fill="#E9E5DA" opacity="1.000000" stroke="none" 
	d="
M758.000000,697.815430 
	C795.315674,697.811401 832.132019,697.708923 868.945984,697.955750 
	C872.646118,697.980530 876.839966,699.374512 879.903442,701.458069 
	C884.321289,704.462769 885.028381,709.480042 883.311401,714.505493 
	C881.596741,719.523682 878.005554,722.474487 872.639587,722.980225 
	C870.820923,723.151550 868.978149,723.094177 867.146362,723.094238 
	C740.373779,723.098633 613.601257,723.098755 486.828674,723.093079 
	C484.830780,723.093018 482.816589,723.163818 480.837952,722.946960 
	C474.430481,722.244568 470.001465,717.299133 469.820343,710.802856 
	C469.640320,704.345215 473.827606,699.059570 480.150024,698.070557 
	C482.434692,697.713196 484.800751,697.811401 487.129669,697.811218 
	C577.253113,697.804749 667.376526,697.811035 758.000000,697.815430 
z"/>
<path fill="#E7E4D9" opacity="1.000000" stroke="none" 
	d="
M524.502014,364.587830 
	C513.675537,356.867188 509.227814,346.253021 512.167480,334.504913 
	C515.021179,323.100403 522.447205,315.920837 533.996826,313.778290 
	C545.757690,311.596588 555.353516,315.749878 562.144775,325.610992 
	C569.201843,335.858215 568.058472,350.389038 559.808899,359.401642 
	C550.513184,369.557190 537.748901,371.519043 524.502014,364.587830 
z"/>
<path fill="#E5E3D9" opacity="1.000000" stroke="none" 
	d="
M715.968628,297.217224 
	C718.490662,308.283844 716.244019,318.390778 712.722595,328.440582 
	C709.644470,337.225464 706.651489,346.062592 704.175720,355.029846 
	C701.621826,364.280121 701.140259,373.674225 705.025940,383.028992 
	C693.247131,376.669525 684.205750,368.056091 683.335022,354.238892 
	C682.865723,346.790955 684.196716,339.005859 686.007568,331.692841 
	C688.440369,321.868408 692.319946,312.412079 695.209229,302.687988 
	C697.856506,293.777954 698.620544,284.717377 695.457886,275.679291 
	C695.263367,275.123383 695.432617,274.440186 695.432617,273.051819 
	C705.661255,278.621643 712.780884,285.947266 715.968628,297.217224 
z"/>
<path fill="#E7E4D9" opacity="1.000000" stroke="none" 
	d="
M664.835815,301.526245 
	C661.671570,291.271393 658.731750,281.391418 655.487976,271.612274 
	C651.806885,260.514526 649.520325,249.399002 653.759399,237.951614 
	C657.403015,228.112366 664.533936,221.561279 674.785278,216.181931 
	C667.299194,232.848511 673.507385,247.363754 677.999878,262.085449 
	C680.662476,270.810547 683.944153,279.499512 685.250793,288.452332 
	C687.649048,304.883759 677.765686,321.407227 664.925903,325.934875 
	C664.925903,318.150452 664.925903,310.048035 664.835815,301.526245 
z"/>
<path fill="#E5E3D9" opacity="1.000000" stroke="none" 
	d="
M208.355896,477.622925 
	C207.636749,463.032837 214.066925,452.647339 226.191956,444.063965 
	C225.686127,447.386169 225.124756,449.841278 224.967773,452.321930 
	C224.358459,461.951447 227.668686,470.671967 231.467773,479.254913 
	C235.510300,488.387848 240.223221,497.286133 243.486191,506.688477 
	C249.357437,523.606628 242.668015,541.046021 227.706299,549.136902 
	C232.313873,531.857849 223.555557,517.946045 217.433762,503.314972 
	C213.988068,495.079712 211.380737,486.493713 208.355896,477.622925 
z"/>
</svg>