<svg version="1.1" id="Layer_1" xmlns="http://www.w3.org/2000/svg" xmlns:xlink="http://www.w3.org/1999/xlink" x="0px" y="0px"
	 width="100%" viewBox="0 0 1080 1080" enable-background="new 0 0 1080 1080" xml:space="preserve">
<path fill="#76A8AE" opacity="1.000000" stroke="none" 
	d="
M1.000000,507.000000 
	C1.000000,338.355469 1.000000,169.710922 1.000000,1.033191 
	C360.930664,1.033191 720.861328,1.033191 1080.895996,1.033191 
	C1080.895996,360.883392 1080.895996,720.766846 1080.895996,1081.000000 
	C912.638794,1081.000000 744.277344,1081.000000 575.323608,1080.748779 
	C574.753174,1080.308960 574.775024,1080.120361 575.263977,1079.978027 
	C583.987244,1079.241943 592.258118,1078.590332 600.497192,1077.656982 
	C665.277222,1070.319458 726.721741,1051.766602 784.733887,1022.097351 
	C851.360046,988.022705 908.419556,941.897949 956.023193,884.190308 
	C1008.533875,820.534241 1044.443237,748.507935 1064.029175,668.330322 
	C1080.416992,601.244690 1082.854614,533.532288 1073.026123,465.321899 
	C1059.288086,369.977997 1022.477539,284.369415 962.883423,208.793335 
	C909.115295,140.605713 842.558838,88.374931 763.615295,51.988567 
	C696.988770,21.279293 626.852112,5.695301 553.718811,3.183837 
	C520.147827,2.030977 486.788971,4.881084 453.660065,10.313870 
	C352.941711,26.830603 264.029846,68.820892 186.925903,135.429276 
	C127.572098,186.703720 81.571152,248.281631 49.001423,319.721924 
	C25.237064,371.847992 10.229034,426.413391 4.037489,483.390747 
	C3.180475,491.277374 2.019991,499.131073 1.000000,507.000000 
z"/>
<path fill="#76A8AE" opacity="1.000000" stroke="none" 
	d="
M506.000000,1081.000000 
	C337.737152,1081.000000 169.474319,1081.000000 1.000000,1081.000000 
	C1.000000,910.975159 1.000000,740.950195 1.269298,570.780029 
	C2.831473,583.714966 3.782003,596.839600 5.472126,609.868164 
	C17.511509,702.675903 51.143181,786.863953 106.755722,862.187439 
	C141.794128,909.644531 183.551270,950.235046 231.884613,984.054626 
	C277.290741,1015.826050 326.430298,1040.052612 379.356842,1056.454102 
	C391.575500,1060.240601 404.135986,1062.923828 416.701233,1066.284058 
	C417.546021,1066.582153 418.228699,1066.710938 419.276794,1066.993408 
	C422.945831,1067.803101 426.249481,1068.459351 429.714386,1069.281982 
	C430.547058,1069.565552 431.218414,1069.682373 432.277374,1069.938354 
	C436.942352,1070.756104 441.219788,1071.434692 445.658722,1072.285400 
	C446.501617,1072.556396 447.183014,1072.655273 448.214874,1072.891968 
	C449.800629,1073.173950 451.035950,1073.318115 452.389282,1073.606812 
	C452.966827,1073.757202 453.426361,1073.763062 454.233765,1073.905273 
	C455.806946,1074.188354 457.032227,1074.335083 458.377014,1074.620117 
	C458.945465,1074.735229 459.394379,1074.712036 460.231750,1074.815308 
	C462.493195,1075.133057 464.366150,1075.324219 466.365204,1075.653320 
	C466.952057,1075.776489 467.412872,1075.761719 468.260437,1075.864990 
	C470.502625,1076.174927 472.358093,1076.366699 474.345642,1076.694580 
	C474.949371,1076.814941 475.421051,1076.799438 476.263519,1076.896973 
	C477.914886,1077.044189 479.195435,1077.078247 480.636108,1077.285889 
	C481.475342,1077.539307 482.154480,1077.619263 483.262024,1077.818359 
	C486.559204,1078.113037 489.428009,1078.288452 492.509338,1078.633545 
	C493.771729,1078.792114 494.821533,1078.781006 496.306519,1078.867676 
	C499.932068,1079.143799 503.122437,1079.322021 506.291779,1079.887207 
	C506.180511,1080.516113 506.090240,1080.758057 506.000000,1081.000000 
z"/>
<path fill="#E5E6D8" opacity="1.000000" stroke="none" 
	d="
M480.475983,1077.112305 
	C479.195435,1077.078247 477.914886,1077.044189 476.114319,1076.794556 
	C475.134064,1076.572266 474.673798,1076.565430 474.213531,1076.558594 
	C472.358093,1076.366699 470.502625,1076.174927 468.114685,1075.767822 
	C467.134521,1075.540161 466.686829,1075.527832 466.239136,1075.515381 
	C464.366150,1075.324219 462.493195,1075.133057 460.088745,1074.726562 
	C459.124023,1074.501343 458.690796,1074.491577 458.257538,1074.481812 
	C457.032227,1074.335083 455.806946,1074.188354 454.092041,1073.803955 
	C453.158722,1073.531494 452.714996,1073.496826 452.271271,1073.462158 
	C451.035950,1073.318115 449.800629,1073.173950 447.941345,1072.755859 
	C446.710632,1072.359131 446.103943,1072.236206 445.497223,1072.113281 
	C441.219788,1071.434692 436.942352,1070.756104 432.009583,1069.794189 
	C430.753815,1069.379150 430.153473,1069.247314 429.553101,1069.115479 
	C426.249481,1068.459351 422.945831,1067.803101 419.006195,1066.841797 
	C417.759857,1066.395996 417.149506,1066.255371 416.539185,1066.114746 
	C404.135986,1062.923828 391.575500,1060.240601 379.356842,1056.454102 
	C326.430298,1040.052612 277.290741,1015.826050 231.884613,984.054626 
	C183.551270,950.235046 141.794128,909.644531 106.755722,862.187439 
	C51.143181,786.863953 17.511509,702.675903 5.472126,609.868164 
	C3.782003,596.839600 2.831473,583.714966 1.269298,570.317383 
	C1.000000,549.312439 1.000000,528.624878 1.000000,507.468658 
	C2.019991,499.131073 3.180475,491.277374 4.037489,483.390747 
	C10.229034,426.413391 25.237064,371.847992 49.001423,319.721924 
	C81.571152,248.281631 127.572098,186.703720 186.925903,135.429276 
	C264.029846,68.820892 352.941711,26.830603 453.660065,10.313870 
	C486.788971,4.881084 520.147827,2.030977 553.718811,3.183837 
	C626.852112,5.695301 696.988770,21.279293 763.615295,51.988567 
	C842.558838,88.374931 909.115295,140.605713 962.883423,208.793335 
	C1022.477539,284.369415 1059.288086,369.977997 1073.026123,465.321899 
	C1082.854614,533.532288 1080.416992,601.244690 1064.029175,668.330322 
	C1044.443237,748.507935 1008.533875,820.534241 956.023193,884.190308 
	C908.419556,941.897949 851.360046,988.022705 784.733887,1022.097351 
	C726.721741,1051.766602 665.277222,1070.319458 600.497192,1077.656982 
	C592.258118,1078.590332 583.987244,1079.241943 574.897095,1079.958008 
	C551.479736,1079.761353 528.896240,1079.630859 506.312805,1079.500366 
	C503.122437,1079.322021 499.932068,1079.143799 496.072083,1078.734375 
	C494.367249,1078.490234 493.332031,1078.477051 492.296783,1078.463989 
	C489.428009,1078.288452 486.559204,1078.113037 482.987244,1077.692749 
	C481.681366,1077.335938 481.078674,1077.224121 480.475983,1077.112305 
M1064.373657,520.279968 
	C1063.225220,505.501495 1062.671143,490.648407 1060.827026,475.957275 
	C1052.102539,406.455994 1030.473877,341.115265 995.251648,280.577942 
	C937.000610,180.460312 854.769104,106.645271 748.691162,60.098953 
	C666.761353,24.148651 580.838379,11.105403 491.749512,19.030664 
	C437.353729,23.869659 384.966858,37.071548 334.811584,58.538212 
	C260.873199,90.184128 197.309647,136.334442 144.284241,196.896942 
	C107.082321,239.386810 77.390747,286.617432 55.480854,338.639435 
	C21.975595,418.193054 8.822480,501.053009 16.787611,587.045837 
	C29.813536,727.675781 89.495247,845.212097 195.363708,938.178589 
	C284.283478,1016.261963 388.846466,1058.819336 507.229095,1066.392944 
	C562.023193,1069.898438 616.073792,1064.992065 669.310913,1051.307251 
	C757.374268,1028.670410 834.507935,986.087830 900.587463,923.795044 
	C960.270996,867.532043 1004.554932,800.777588 1032.966064,723.791565 
	C1057.077393,658.456604 1068.430786,590.999207 1064.373657,520.279968 
z"/>
<path fill="#E4E5D7" opacity="1.000000" stroke="none" 
	d="
M506.291779,1079.887207 
	C528.896240,1079.630859 551.479736,1079.761353 574.430054,1079.911865 
	C574.775024,1080.120361 574.753174,1080.308960 574.865601,1080.748779 
	C552.312439,1081.000000 529.624878,1081.000000 506.468658,1081.000000 
	C506.090240,1080.758057 506.180511,1080.516113 506.291779,1079.887207 
z"/>
<path fill="#E4E5D7" opacity="1.000000" stroke="none" 
	d="
M492.509338,1078.633545 
	C493.332031,1078.477051 494.367249,1078.490234 495.636932,1078.636719 
	C494.821533,1078.781006 493.771729,1078.792114 492.509338,1078.633545 
z"/>
<path fill="#E4E5D7" opacity="1.000000" stroke="none" 
	d="
M416.701263,1066.283936 
	C417.149506,1066.255371 417.759857,1066.395996 418.640778,1066.688232 
	C418.228699,1066.710938 417.546021,1066.582153 416.701263,1066.283936 
z"/>
<path fill="#E4E5D7" opacity="1.000000" stroke="none" 
	d="
M429.714386,1069.281982 
	C430.153473,1069.247314 430.753815,1069.379150 431.622009,1069.655151 
	C431.218414,1069.682373 430.547058,1069.565552 429.714386,1069.281982 
z"/>
<path fill="#E4E5D7" opacity="1.000000" stroke="none" 
	d="
M445.658722,1072.285400 
	C446.103943,1072.236206 446.710632,1072.359131 447.590881,1072.618164 
	C447.183014,1072.655273 446.501617,1072.556396 445.658722,1072.285400 
z"/>
<path fill="#E4E5D7" opacity="1.000000" stroke="none" 
	d="
M452.389282,1073.606689 
	C452.714996,1073.496826 453.158722,1073.531494 453.744202,1073.667603 
	C453.426361,1073.763062 452.966827,1073.757202 452.389282,1073.606689 
z"/>
<path fill="#E4E5D7" opacity="1.000000" stroke="none" 
	d="
M458.377014,1074.620117 
	C458.690796,1074.491577 459.124023,1074.501343 459.700317,1074.599854 
	C459.394379,1074.712036 458.945465,1074.735229 458.377014,1074.620117 
z"/>
<path fill="#E4E5D7" opacity="1.000000" stroke="none" 
	d="
M466.365204,1075.653320 
	C466.686829,1075.527832 467.134521,1075.540161 467.727936,1075.649658 
	C467.412872,1075.761719 466.952057,1075.776489 466.365204,1075.653320 
z"/>
<path fill="#E4E5D7" opacity="1.000000" stroke="none" 
	d="
M474.345642,1076.694580 
	C474.673798,1076.565430 475.134064,1076.572266 475.743530,1076.681396 
	C475.421051,1076.799438 474.949371,1076.814941 474.345642,1076.694580 
z"/>
<path fill="#E4E5D7" opacity="1.000000" stroke="none" 
	d="
M480.636108,1077.285889 
	C481.078674,1077.224121 481.681366,1077.335938 482.558838,1077.573486 
	C482.154480,1077.619263 481.475342,1077.539307 480.636108,1077.285889 
z"/>
<path fill="#77A9AE" opacity="1.000000" stroke="none" 
	d="
M1064.390869,520.753357 
	C1068.430786,590.999207 1057.077393,658.456604 1032.966064,723.791565 
	C1004.554932,800.777588 960.270996,867.532043 900.587463,923.795044 
	C834.507935,986.087830 757.374268,1028.670410 669.310913,1051.307251 
	C616.073792,1064.992065 562.023193,1069.898438 507.229095,1066.392944 
	C388.846466,1058.819336 284.283478,1016.261963 195.363708,938.178589 
	C89.495247,845.212097 29.813536,727.675781 16.787611,587.045837 
	C8.822480,501.053009 21.975595,418.193054 55.480854,338.639435 
	C77.390747,286.617432 107.082321,239.386810 144.284241,196.896942 
	C197.309647,136.334442 260.873199,90.184128 334.811584,58.538212 
	C384.966858,37.071548 437.353729,23.869659 491.749512,19.030664 
	C580.838379,11.105403 666.761353,24.148651 748.691162,60.098953 
	C854.769104,106.645271 937.000610,180.460312 995.251648,280.577942 
	C1030.473877,341.115265 1052.102539,406.455994 1060.827026,475.957275 
	C1062.671143,490.648407 1063.225220,505.501495 1064.390869,520.753357 
M109.849609,355.272156 
	C106.528900,363.453979 103.035538,371.570587 99.916351,379.828522 
	C83.417015,423.509979 74.052422,468.833435 71.489723,515.315002 
	C70.265869,537.512878 71.554543,559.959412 73.193123,582.183594 
	C77.482224,640.356995 93.140358,695.576111 118.773018,747.940308 
	C148.292084,808.243896 189.049393,859.762085 240.609451,902.721313 
	C288.987823,943.029541 343.290619,972.569519 403.531708,990.844971 
	C474.438416,1012.356018 546.601990,1017.067017 619.586121,1004.131165 
	C733.045349,984.021423 827.249878,929.502563 900.617310,840.983398 
	C979.317078,746.030640 1015.879028,636.124512 1007.392761,512.718750 
	C997.853333,373.998077 938.092102,260.221252 829.348145,174.001526 
	C733.081421,97.674644 622.274780,65.085434 499.500916,75.155220 
	C433.447418,80.572853 371.347595,99.553444 313.512299,131.953659 
	C221.180679,183.679260 153.414536,257.967316 109.849609,355.272156 
z"/>
<path fill="#E4E5D7" opacity="1.000000" stroke="none" 
	d="
M109.995071,354.921082 
	C153.414536,257.967316 221.180679,183.679260 313.512299,131.953659 
	C371.347595,99.553444 433.447418,80.572853 499.500916,75.155220 
	C622.274780,65.085434 733.081421,97.674644 829.348145,174.001526 
	C938.092102,260.221252 997.853333,373.998077 1007.392761,512.718750 
	C1015.879028,636.124512 979.317078,746.030640 900.617310,840.983398 
	C827.249878,929.502563 733.045349,984.021423 619.586121,1004.131165 
	C546.601990,1017.067017 474.438416,1012.356018 403.531708,990.844971 
	C343.290619,972.569519 288.987823,943.029541 240.609451,902.721313 
	C189.049393,859.762085 148.292084,808.243896 118.773018,747.940308 
	C93.140358,695.576111 77.482224,640.356995 73.193123,582.183594 
	C71.554543,559.959412 70.265869,537.512878 71.489723,515.315002 
	C74.052422,468.833435 83.417015,423.509979 99.916351,379.828522 
	C103.035538,371.570587 106.528900,363.453979 109.995071,354.921082 
M586.856018,87.354538 
	C567.555481,86.718010 548.242676,85.288620 528.956482,85.584999 
	C453.621277,86.742676 383.064056,106.254494 317.462891,143.115829 
	C236.500000,188.608902 174.482391,252.752701 132.256622,335.471680 
	C94.509766,409.416595 78.014809,488.021454 83.999977,571.032593 
	C92.556900,689.712830 139.671646,790.487061 225.214294,873.162720 
	C263.834869,910.488831 308.000610,939.764771 357.259033,961.114441 
	C444.536774,998.942444 535.200134,1008.990540 628.349792,990.422485 
	C737.438599,968.677124 827.628174,914.100586 896.787292,826.989990 
	C977.747681,725.015015 1010.853516,608.435608 991.993774,479.436584 
	C969.585083,326.162537 887.972839,212.518814 752.660461,137.764969 
	C701.440063,109.468048 645.924011,93.733627 586.856018,87.354538 
z"/>
<path fill="#76A8AE" opacity="1.000000" stroke="none" 
	d="
M587.303711,87.407440 
	C645.924011,93.733627 701.440063,109.468048 752.660461,137.764969 
	C887.972839,212.518814 969.585083,326.162537 991.993774,479.436584 
	C1010.853516,608.435608 977.747681,725.015015 896.787292,826.989990 
	C827.628174,914.100586 737.438599,968.677124 628.349792,990.422485 
	C535.200134,1008.990540 444.536774,998.942444 357.259033,961.114441 
	C308.000610,939.764771 263.834869,910.488831 225.214294,873.162720 
	C139.671646,790.487061 92.556900,689.712830 83.999977,571.032593 
	C78.014809,488.021454 94.509766,409.416595 132.256622,335.471680 
	C174.482391,252.752701 236.500000,188.608902 317.462891,143.115829 
	C383.064056,106.254494 453.621277,86.742676 528.956482,85.584999 
	C548.242676,85.288620 567.555481,86.718010 587.303711,87.407440 
M648.034851,271.028381 
	C648.034851,271.028381 647.937134,271.037933 648.001831,270.184113 
	C648.187012,263.495880 647.565491,256.658173 648.769836,250.158829 
	C650.146423,242.730560 653.467346,235.686127 655.371216,228.326859 
	C658.704773,215.441055 653.300415,204.024109 641.967896,198.966507 
	C641.967896,198.966507 642.051270,198.977844 642.042053,199.823669 
	C642.068726,205.726181 643.026062,211.813171 641.901428,217.487473 
	C640.262512,225.756516 636.844055,233.654724 634.693115,241.844650 
	C631.450989,254.189285 636.844788,265.599976 648.034851,271.028381 
M364.972107,369.469238 
	C356.064178,388.408997 351.252502,408.334595 350.275269,429.245087 
	C350.084686,433.322479 351.173828,434.974243 355.462585,434.823914 
	C362.952515,434.561310 370.462189,434.609436 377.955780,434.813782 
	C381.429260,434.908539 382.871460,433.926453 383.323822,430.215424 
	C386.335266,405.511414 393.250580,381.978149 405.288330,360.086670 
	C415.105103,342.234253 428.187073,327.399475 445.755371,316.783081 
	C447.050049,316.000732 448.487640,315.454834 449.858795,314.799011 
	C450.080017,315.158112 450.301208,315.517212 450.522400,315.876312 
	C449.324615,316.932770 448.193359,318.078094 446.918854,319.032135 
	C431.268799,330.746826 420.595154,346.250824 413.058044,364.015869 
	C404.505096,384.175232 400.361542,405.322021 399.631012,427.183044 
	C399.378143,434.750763 399.254761,434.752808 406.981720,434.752930 
	C512.136658,434.754364 617.291565,434.753967 722.446472,434.753632 
	C723.446350,434.753632 724.453918,434.668213 725.444702,434.761902 
	C728.821350,435.081268 730.419800,433.801422 730.056335,430.215790 
	C729.418640,423.924408 729.413879,417.533905 728.324890,411.328674 
	C718.712585,356.556854 687.546936,317.125946 639.526367,291.196625 
	C583.978455,261.202820 525.705139,257.874481 466.547821,279.471313 
	C421.421722,295.945709 386.969299,325.328766 364.972107,369.469238 
M346.500000,470.955383 
	C482.430389,470.955383 618.360779,470.955536 754.291138,470.954071 
	C756.456604,470.954041 758.626709,471.020355 760.786743,470.906708 
	C768.179626,470.517609 773.241211,465.242218 773.268616,457.980164 
	C773.295837,450.766357 768.250793,445.439545 760.861511,444.968201 
	C758.869995,444.841187 756.864868,444.917389 754.866028,444.917358 
	C628.763977,444.915771 502.661896,444.915680 376.559814,444.916199 
	C358.069275,444.916290 339.578552,444.868530 321.088318,444.945435 
	C312.714874,444.980286 307.036163,450.339539 307.027588,457.908783 
	C307.018951,465.538666 312.654846,470.852417 321.012695,470.932434 
	C329.174438,471.010590 337.337524,470.953217 346.500000,470.955383 
M337.915253,666.663147 
	C339.917603,669.730591 341.720093,672.953674 343.963776,675.833069 
	C348.681702,681.887817 354.684143,682.195801 360.323944,676.926086 
	C366.203522,671.432373 368.450592,662.377747 365.353729,654.949341 
	C363.438538,650.355347 360.647919,646.127258 358.718018,641.538269 
	C351.618683,624.656982 327.225494,617.582520 313.804749,620.690796 
	C302.445679,623.321594 292.721344,629.164246 284.444763,637.003601 
	C254.357895,665.501282 265.106506,715.003479 304.110168,728.970825 
	C312.088287,731.827820 320.140686,734.747070 327.614410,738.673767 
	C336.816406,743.508484 338.505676,753.039001 332.541107,761.590515 
	C328.224213,767.779663 322.003845,770.377869 314.685089,771.186096 
	C306.267578,772.115723 297.764130,772.844299 289.531342,774.696960 
	C282.145325,776.359070 278.955353,780.962097 278.811188,787.309753 
	C278.605743,796.353882 283.292114,802.377930 292.600677,803.083679 
	C299.489380,803.605896 306.518005,802.628601 313.460236,802.036926 
	C339.695038,799.800903 358.688660,783.986084 365.422821,758.927917 
	C371.185059,737.486206 360.593048,715.768311 340.101715,707.318420 
	C335.181671,705.289612 330.055389,703.763000 325.032898,701.980286 
	C313.941864,698.043579 303.804077,692.974915 299.299713,680.933655 
	C295.496002,670.765442 299.425598,661.368835 310.085144,655.488037 
	C320.447021,649.771606 326.774628,651.261230 334.071442,661.154236 
	C335.257538,662.762390 336.388580,664.411011 337.915253,666.663147 
M687.812500,753.353760 
	C689.180847,745.315186 690.755371,737.305115 691.872620,729.231812 
	C693.912354,714.492737 695.345154,699.749939 689.269775,685.455139 
	C682.460999,669.434509 672.463440,663.685425 655.401489,665.910950 
	C642.010193,667.657654 630.653625,674.514954 618.945068,680.404907 
	C615.936401,681.918335 613.182922,684.445862 611.064575,687.106506 
	C607.629700,691.420654 607.981689,698.438782 611.236023,702.537781 
	C614.860413,707.102966 619.445862,706.087280 624.002808,704.516541 
	C626.037781,703.815125 627.907898,702.650269 629.908203,701.830811 
	C637.287415,698.808044 644.656860,695.754883 652.109558,692.922607 
	C653.730591,692.306580 655.784607,692.109009 657.460388,692.495056 
	C662.254639,693.599487 666.818176,702.003235 666.425903,708.449036 
	C666.083618,714.072998 663.358276,716.908203 656.705200,717.840820 
	C650.281006,718.741394 643.797607,719.210938 637.348816,719.945496 
	C621.795959,721.717224 608.366577,727.543823 599.249207,740.878235 
	C592.787964,750.328003 592.706482,763.509705 599.182678,771.367371 
	C613.729187,789.016663 632.583984,799.674805 654.919678,803.927185 
	C666.650146,806.160461 672.376404,802.986389 678.003418,792.335754 
	C679.461426,789.576050 680.484680,786.500488 681.201111,783.451050 
	C683.484924,773.730652 685.530396,763.954346 687.812500,753.353760 
M715.299622,798.477783 
	C722.956543,801.770935 728.501770,800.388977 732.968018,793.511414 
	C735.768005,789.199890 738.215942,784.612122 740.379883,779.943420 
	C749.251526,760.802612 760.684204,743.259583 773.573242,726.652222 
	C775.833740,723.739502 779.256775,721.728943 783.202271,718.410828 
	C783.673889,721.791260 784.098450,723.224365 784.032837,724.634644 
	C783.700623,731.773987 783.310486,738.912231 782.810974,746.041809 
	C781.881409,759.310364 780.775696,772.567444 779.973145,785.843201 
	C779.852783,787.834595 780.471313,790.267700 781.625610,791.860657 
	C784.492004,795.816345 791.916199,796.749146 798.367249,794.453003 
	C804.679382,792.206360 808.249695,788.250488 807.937256,782.544128 
	C806.863159,762.932983 810.596191,743.731567 812.442261,724.366455 
	C813.539124,712.860352 813.774658,701.439758 808.313171,690.641907 
	C805.649048,685.374634 801.381897,682.823975 795.900635,683.061890 
	C792.217712,683.221802 788.278564,684.298889 785.011414,686.022217 
	C772.002747,692.884033 762.807129,703.808289 754.434998,715.594788 
	C752.055969,718.944092 748.847778,721.704529 746.019897,724.735046 
	C745.521912,724.458008 745.023865,724.180969 744.525879,723.903931 
	C744.315735,721.841736 743.991394,719.783752 743.915222,717.716675 
	C743.590454,708.906616 743.802002,700.046814 742.914368,691.296875 
	C742.203308,684.287354 738.750793,681.234436 733.465332,680.895630 
	C726.873901,680.473083 722.263672,683.372498 720.144409,689.815979 
	C719.062866,693.104370 718.341919,696.600464 718.071472,700.050781 
	C716.992615,713.815430 716.292358,727.609924 715.191223,741.372498 
	C713.944519,756.955139 712.168579,772.500183 711.218567,788.097900 
	C711.022156,791.321228 713.446960,794.704285 715.299622,798.477783 
M398.277405,701.773254 
	C393.648590,709.011353 387.653137,715.723206 384.628235,723.578918 
	C371.723328,757.092651 389.558258,783.101990 413.284882,793.115723 
	C425.929016,798.452209 439.330292,798.987732 452.497437,796.384644 
	C459.976013,794.906189 467.262512,791.454346 474.050232,787.803101 
	C479.389923,784.930847 480.739014,779.238892 478.928070,774.447205 
	C476.484344,767.981079 472.795929,765.329590 465.952393,766.049561 
	C461.351562,766.533569 456.840118,767.871338 452.290344,768.835083 
	C443.695221,770.655884 435.143372,771.291077 426.767456,767.812012 
	C415.593262,763.170532 403.114166,746.775818 411.422699,732.679321 
	C418.871399,720.041748 429.814514,712.790283 444.970428,713.046021 
	C450.446503,713.138428 455.959076,713.728333 461.388489,713.282043 
	C468.906677,712.664124 473.814758,706.817200 474.132355,699.147949 
	C474.469574,691.003723 471.985443,687.769348 463.124664,685.963928 
	C439.346436,681.118896 417.413391,684.351074 398.277405,701.773254 
M530.957825,696.230957 
	C530.980713,691.405029 531.267395,686.562378 530.963562,681.757080 
	C530.525757,674.830444 526.930176,671.627625 520.008240,671.375305 
	C512.070190,671.085938 506.801636,674.891418 505.366272,682.733276 
	C503.990387,690.250244 502.851318,697.854614 502.300446,705.470703 
	C500.296051,733.180176 498.634583,760.914368 496.708252,788.629822 
	C496.370270,793.492554 498.238281,797.231445 502.547028,798.540894 
	C514.562927,802.192383 525.607666,801.924744 526.738770,786.447815 
	C527.792786,772.025024 528.760986,757.590698 529.388184,743.145081 
	C529.584351,738.625610 530.790588,735.236633 534.391418,732.380859 
	C542.572815,725.892212 551.374207,720.718811 561.522827,717.957703 
	C568.418945,716.081604 575.482727,714.564331 582.079468,711.911621 
	C589.745056,708.829041 593.706055,701.616516 592.336914,695.447693 
	C591.107849,689.909912 584.683411,686.010010 576.342163,686.018250 
	C565.582153,686.028870 555.787354,689.544495 546.457764,694.627441 
	C543.102356,696.455444 539.794312,698.437622 536.266846,699.858459 
	C533.973022,700.782532 531.085327,701.272827 530.957825,696.230957 
M576.500000,495.729492 
	C633.662292,495.729706 690.824585,495.728516 747.986877,495.734314 
	C750.818970,495.734589 753.657288,495.930206 756.481934,495.801086 
	C762.412842,495.529999 766.350281,492.078918 766.421326,487.286072 
	C766.498657,482.069672 762.773499,479.004578 756.177307,478.863953 
	C755.344421,478.846191 754.510803,478.854492 753.677551,478.854492 
	C671.017273,478.854034 588.356995,478.846893 505.696777,478.888702 
	C503.234863,478.889954 500.188263,478.608948 498.456390,479.879761 
	C496.179382,481.550507 493.763031,484.555634 493.596954,487.128387 
	C493.446289,489.462006 495.798981,492.490570 497.864716,494.258240 
	C499.403717,495.575134 502.245117,495.772522 504.508331,495.778595 
	C528.171997,495.842102 551.836060,495.766144 576.500000,495.729492 
M526.589905,256.938568 
	C535.438171,263.848633 545.621155,263.369781 552.500122,255.720169 
	C558.808838,248.704666 558.785522,237.986557 552.446716,231.182480 
	C545.520935,223.748337 534.315002,223.128571 526.879639,229.768509 
	C518.951050,236.848892 518.620605,247.722809 526.589905,256.938568 
M631.233765,225.664658 
	C637.832764,215.996765 635.652039,206.060059 632.281738,196.004898 
	C628.652344,185.176712 623.802612,174.502838 626.918762,162.105759 
	C623.276001,164.641098 619.798035,167.217651 617.443054,170.580582 
	C611.413147,179.191238 612.675964,188.459930 615.822205,197.837524 
	C619.659302,209.274643 624.898132,220.534622 621.156616,233.232147 
	C621.547852,233.497223 621.939148,233.762283 622.330383,234.027344 
	C625.156982,231.435883 627.983521,228.844421 631.233765,225.664658 
M333.511627,367.396942 
	C333.889557,371.415192 334.267487,375.433441 334.653717,379.540039 
	C344.138458,374.383362 347.715607,362.432678 343.537079,351.248077 
	C338.807251,338.587677 329.757721,327.239899 332.307617,312.078766 
	C321.434998,319.522919 318.270416,330.172394 323.066833,342.271179 
	C326.306244,350.442322 329.873199,358.483643 333.511627,367.396942 
z"/>
<path fill="#E8E8D9" opacity="1.000000" stroke="none" 
	d="
M365.133179,369.129883 
	C386.969299,325.328766 421.421722,295.945709 466.547821,279.471313 
	C525.705139,257.874481 583.978455,261.202820 639.526367,291.196625 
	C687.546936,317.125946 718.712585,356.556854 728.324890,411.328674 
	C729.413879,417.533905 729.418640,423.924408 730.056335,430.215790 
	C730.419800,433.801422 728.821350,435.081268 725.444702,434.761902 
	C724.453918,434.668213 723.446350,434.753632 722.446472,434.753632 
	C617.291565,434.753967 512.136658,434.754364 406.981720,434.752930 
	C399.254761,434.752808 399.378143,434.750763 399.631012,427.183044 
	C400.361542,405.322021 404.505096,384.175232 413.058044,364.015869 
	C420.595154,346.250824 431.268799,330.746826 446.918854,319.032135 
	C448.193359,318.078094 449.324615,316.932770 450.522400,315.876312 
	C450.301208,315.517212 450.080017,315.158112 449.858795,314.799011 
	C448.487640,315.454834 447.050049,316.000732 445.755371,316.783081 
	C428.187073,327.399475 415.105103,342.234253 405.288330,360.086670 
	C393.250580,381.978149 386.335266,405.511414 383.323822,430.215424 
	C382.871460,433.926453 381.429260,434.908539 377.955780,434.813782 
	C370.462189,434.609436 362.952515,434.561310 355.462585,434.823914 
	C351.173828,434.974243 350.084686,433.322479 350.275269,429.245087 
	C351.252502,408.334595 356.064178,388.408997 365.133179,369.129883 
z"/>
<path fill="#E8E8D9" opacity="1.000000" stroke="none" 
	d="
M346.000000,470.955322 
	C337.337524,470.953217 329.174438,471.010590 321.012695,470.932434 
	C312.654846,470.852417 307.018951,465.538666 307.027588,457.908783 
	C307.036163,450.339539 312.714874,444.980286 321.088318,444.945435 
	C339.578552,444.868530 358.069275,444.916290 376.559814,444.916199 
	C502.661896,444.915680 628.763977,444.915771 754.866028,444.917358 
	C756.864868,444.917389 758.869995,444.841187 760.861511,444.968201 
	C768.250793,445.439545 773.295837,450.766357 773.268616,457.980164 
	C773.241211,465.242218 768.179626,470.517609 760.786743,470.906708 
	C758.626709,471.020355 756.456604,470.954041 754.291138,470.954071 
	C618.360779,470.955536 482.430389,470.955383 346.000000,470.955322 
z"/>
<path fill="#E7E7D8" opacity="1.000000" stroke="none" 
	d="
M337.730164,666.352051 
	C336.388580,664.411011 335.257538,662.762390 334.071442,661.154236 
	C326.774628,651.261230 320.447021,649.771606 310.085144,655.488037 
	C299.425598,661.368835 295.496002,670.765442 299.299713,680.933655 
	C303.804077,692.974915 313.941864,698.043579 325.032898,701.980286 
	C330.055389,703.763000 335.181671,705.289612 340.101715,707.318420 
	C360.593048,715.768311 371.185059,737.486206 365.422821,758.927917 
	C358.688660,783.986084 339.695038,799.800903 313.460236,802.036926 
	C306.518005,802.628601 299.489380,803.605896 292.600677,803.083679 
	C283.292114,802.377930 278.605743,796.353882 278.811188,787.309753 
	C278.955353,780.962097 282.145325,776.359070 289.531342,774.696960 
	C297.764130,772.844299 306.267578,772.115723 314.685089,771.186096 
	C322.003845,770.377869 328.224213,767.779663 332.541107,761.590515 
	C338.505676,753.039001 336.816406,743.508484 327.614410,738.673767 
	C320.140686,734.747070 312.088287,731.827820 304.110168,728.970825 
	C265.106506,715.003479 254.357895,665.501282 284.444763,637.003601 
	C292.721344,629.164246 302.445679,623.321594 313.804749,620.690796 
	C327.225494,617.582520 351.618683,624.656982 358.718018,641.538269 
	C360.647919,646.127258 363.438538,650.355347 365.353729,654.949341 
	C368.450592,662.377747 366.203522,671.432373 360.323944,676.926086 
	C354.684143,682.195801 348.681702,681.887817 343.963776,675.833069 
	C341.720093,672.953674 339.917603,669.730591 337.730164,666.352051 
z"/>
<path fill="#E7E7D8" opacity="1.000000" stroke="none" 
	d="
M687.740173,753.776672 
	C685.530396,763.954346 683.484924,773.730652 681.201111,783.451050 
	C680.484680,786.500488 679.461426,789.576050 678.003418,792.335754 
	C672.376404,802.986389 666.650146,806.160461 654.919678,803.927185 
	C632.583984,799.674805 613.729187,789.016663 599.182678,771.367371 
	C592.706482,763.509705 592.787964,750.328003 599.249207,740.878235 
	C608.366577,727.543823 621.795959,721.717224 637.348816,719.945496 
	C643.797607,719.210938 650.281006,718.741394 656.705200,717.840820 
	C663.358276,716.908203 666.083618,714.072998 666.425903,708.449036 
	C666.818176,702.003235 662.254639,693.599487 657.460388,692.495056 
	C655.784607,692.109009 653.730591,692.306580 652.109558,692.922607 
	C644.656860,695.754883 637.287415,698.808044 629.908203,701.830811 
	C627.907898,702.650269 626.037781,703.815125 624.002808,704.516541 
	C619.445862,706.087280 614.860413,707.102966 611.236023,702.537781 
	C607.981689,698.438782 607.629700,691.420654 611.064575,687.106506 
	C613.182922,684.445862 615.936401,681.918335 618.945068,680.404907 
	C630.653625,674.514954 642.010193,667.657654 655.401489,665.910950 
	C672.463440,663.685425 682.460999,669.434509 689.269775,685.455139 
	C695.345154,699.749939 693.912354,714.492737 691.872620,729.231812 
	C690.755371,737.305115 689.180847,745.315186 687.740173,753.776672 
M659.875793,766.147766 
	C660.812927,760.592163 661.979431,755.062866 662.621399,749.473389 
	C663.238281,744.102661 661.826111,742.127625 656.389343,742.338379 
	C648.456909,742.645935 640.492310,743.560364 632.681519,744.984253 
	C628.594788,745.729309 623.535278,747.196838 622.778259,752.145508 
	C621.946289,757.584045 625.851990,761.351929 629.787842,764.622437 
	C630.546631,765.253052 631.431580,765.805298 632.348755,766.159851 
	C637.604126,768.191528 642.805969,770.414551 648.180603,772.071045 
	C654.775085,774.103516 656.281433,773.225220 659.875793,766.147766 
z"/>
<path fill="#E7E7D8" opacity="1.000000" stroke="none" 
	d="
M714.981689,798.245728 
	C713.446960,794.704285 711.022156,791.321228 711.218567,788.097900 
	C712.168579,772.500183 713.944519,756.955139 715.191223,741.372498 
	C716.292358,727.609924 716.992615,713.815430 718.071472,700.050781 
	C718.341919,696.600464 719.062866,693.104370 720.144409,689.815979 
	C722.263672,683.372498 726.873901,680.473083 733.465332,680.895630 
	C738.750793,681.234436 742.203308,684.287354 742.914368,691.296875 
	C743.802002,700.046814 743.590454,708.906616 743.915222,717.716675 
	C743.991394,719.783752 744.315735,721.841736 744.525879,723.903931 
	C745.023865,724.180969 745.521912,724.458008 746.019897,724.735046 
	C748.847778,721.704529 752.055969,718.944092 754.434998,715.594788 
	C762.807129,703.808289 772.002747,692.884033 785.011414,686.022217 
	C788.278564,684.298889 792.217712,683.221802 795.900635,683.061890 
	C801.381897,682.823975 805.649048,685.374634 808.313171,690.641907 
	C813.774658,701.439758 813.539124,712.860352 812.442261,724.366455 
	C810.596191,743.731567 806.863159,762.932983 807.937256,782.544128 
	C808.249695,788.250488 804.679382,792.206360 798.367249,794.453003 
	C791.916199,796.749146 784.492004,795.816345 781.625610,791.860657 
	C780.471313,790.267700 779.852783,787.834595 779.973145,785.843201 
	C780.775696,772.567444 781.881409,759.310364 782.810974,746.041809 
	C783.310486,738.912231 783.700623,731.773987 784.032837,724.634644 
	C784.098450,723.224365 783.673889,721.791260 783.202271,718.410828 
	C779.256775,721.728943 775.833740,723.739502 773.573242,726.652222 
	C760.684204,743.259583 749.251526,760.802612 740.379883,779.943420 
	C738.215942,784.612122 735.768005,789.199890 732.968018,793.511414 
	C728.501770,800.388977 722.956543,801.770935 714.981689,798.245728 
z"/>
<path fill="#E7E7D8" opacity="1.000000" stroke="none" 
	d="
M398.530701,701.529358 
	C417.413391,684.351074 439.346436,681.118896 463.124664,685.963928 
	C471.985443,687.769348 474.469574,691.003723 474.132355,699.147949 
	C473.814758,706.817200 468.906677,712.664124 461.388489,713.282043 
	C455.959076,713.728333 450.446503,713.138428 444.970428,713.046021 
	C429.814514,712.790283 418.871399,720.041748 411.422699,732.679321 
	C403.114166,746.775818 415.593262,763.170532 426.767456,767.812012 
	C435.143372,771.291077 443.695221,770.655884 452.290344,768.835083 
	C456.840118,767.871338 461.351562,766.533569 465.952393,766.049561 
	C472.795929,765.329590 476.484344,767.981079 478.928070,774.447205 
	C480.739014,779.238892 479.389923,784.930847 474.050232,787.803101 
	C467.262512,791.454346 459.976013,794.906189 452.497437,796.384644 
	C439.330292,798.987732 425.929016,798.452209 413.284882,793.115723 
	C389.558258,783.101990 371.723328,757.092651 384.628235,723.578918 
	C387.653137,715.723206 393.648590,709.011353 398.530701,701.529358 
z"/>
<path fill="#E7E7D8" opacity="1.000000" stroke="none" 
	d="
M530.963867,696.696777 
	C531.085327,701.272827 533.973022,700.782532 536.266846,699.858459 
	C539.794312,698.437622 543.102356,696.455444 546.457764,694.627441 
	C555.787354,689.544495 565.582153,686.028870 576.342163,686.018250 
	C584.683411,686.010010 591.107849,689.909912 592.336914,695.447693 
	C593.706055,701.616516 589.745056,708.829041 582.079468,711.911621 
	C575.482727,714.564331 568.418945,716.081604 561.522827,717.957703 
	C551.374207,720.718811 542.572815,725.892212 534.391418,732.380859 
	C530.790588,735.236633 529.584351,738.625610 529.388184,743.145081 
	C528.760986,757.590698 527.792786,772.025024 526.738770,786.447815 
	C525.607666,801.924744 514.562927,802.192383 502.547028,798.540894 
	C498.238281,797.231445 496.370270,793.492554 496.708252,788.629822 
	C498.634583,760.914368 500.296051,733.180176 502.300446,705.470703 
	C502.851318,697.854614 503.990387,690.250244 505.366272,682.733276 
	C506.801636,674.891418 512.070190,671.085938 520.008240,671.375305 
	C526.930176,671.627625 530.525757,674.830444 530.963562,681.757080 
	C531.267395,686.562378 530.980713,691.405029 530.963867,696.696777 
z"/>
<path fill="#E6E6D8" opacity="1.000000" stroke="none" 
	d="
M576.000000,495.729187 
	C551.836060,495.766144 528.171997,495.842102 504.508331,495.778595 
	C502.245117,495.772522 499.403717,495.575134 497.864716,494.258240 
	C495.798981,492.490570 493.446289,489.462006 493.596954,487.128387 
	C493.763031,484.555634 496.179382,481.550507 498.456390,479.879761 
	C500.188263,478.608948 503.234863,478.889954 505.696777,478.888702 
	C588.356995,478.846893 671.017273,478.854034 753.677551,478.854492 
	C754.510803,478.854492 755.344421,478.846191 756.177307,478.863953 
	C762.773499,479.004578 766.498657,482.069672 766.421326,487.286072 
	C766.350281,492.078918 762.412842,495.529999 756.481934,495.801086 
	C753.657288,495.930206 750.818970,495.734589 747.986877,495.734314 
	C690.824585,495.728516 633.662292,495.729706 576.000000,495.729187 
z"/>
<path fill="#E7E7D8" opacity="1.000000" stroke="none" 
	d="
M526.329590,256.686340 
	C518.620605,247.722809 518.951050,236.848892 526.879639,229.768509 
	C534.315002,223.128571 545.520935,223.748337 552.446716,231.182480 
	C558.785522,237.986557 558.808838,248.704666 552.500122,255.720169 
	C545.621155,263.369781 535.438171,263.848633 526.329590,256.686340 
z"/>
<path fill="#E6E6D8" opacity="1.000000" stroke="none" 
	d="
M631.021973,225.958801 
	C627.983521,228.844421 625.156982,231.435883 622.330383,234.027344 
	C621.939148,233.762283 621.547852,233.497223 621.156616,233.232147 
	C624.898132,220.534622 619.659302,209.274643 615.822205,197.837524 
	C612.675964,188.459930 611.413147,179.191238 617.443054,170.580582 
	C619.798035,167.217651 623.276001,164.641098 626.918762,162.105759 
	C623.802612,174.502838 628.652344,185.176712 632.281738,196.004898 
	C635.652039,206.060059 637.832764,215.996765 631.021973,225.958801 
z"/>
<path fill="#E6E6D8" opacity="1.000000" stroke="none" 
	d="
M641.985596,199.044083 
	C653.300415,204.024109 658.704773,215.441055 655.371216,228.326859 
	C653.467346,235.686127 650.146423,242.730560 648.769836,250.158829 
	C647.565491,256.658173 648.187012,263.495880 647.983215,270.597473 
	C647.964600,271.010834 647.989624,270.983734 647.989624,270.983734 
	C636.844788,265.599976 631.450989,254.189285 634.693115,241.844650 
	C636.844055,233.654724 640.262512,225.756516 641.901428,217.487473 
	C643.026062,211.813171 642.068726,205.726181 642.029175,199.416260 
	C642.016235,199.008835 641.985596,199.044083 641.985596,199.044083 
z"/>
<path fill="#E6E6D8" opacity="1.000000" stroke="none" 
	d="
M333.402618,366.989990 
	C329.873199,358.483643 326.306244,350.442322 323.066833,342.271179 
	C318.270416,330.172394 321.434998,319.522919 332.307617,312.078766 
	C329.757721,327.239899 338.807251,338.587677 343.537079,351.248077 
	C347.715607,362.432678 344.138458,374.383362 334.653717,379.540039 
	C334.267487,375.433441 333.889557,371.415192 333.402618,366.989990 
z"/>
<path fill="#E6E6D8" opacity="1.000000" stroke="none" 
	d="
M642.033752,198.993347 
	C642.051270,198.977844 641.967896,198.966507 641.976746,199.005295 
	C641.985596,199.044083 642.016235,199.008835 642.033752,198.993347 
z"/>
<path fill="#E6E6D8" opacity="1.000000" stroke="none" 
	d="
M647.950867,271.024384 
	C647.937134,271.037933 648.034851,271.028381 648.012207,271.006042 
	C647.989624,270.983734 647.964600,271.010834 647.950867,271.024384 
z"/>
<path fill="#77A9AE" opacity="1.000000" stroke="none" 
	d="
M659.728027,766.507812 
	C656.281433,773.225220 654.775085,774.103516 648.180603,772.071045 
	C642.805969,770.414551 637.604126,768.191528 632.348755,766.159851 
	C631.431580,765.805298 630.546631,765.253052 629.787842,764.622437 
	C625.851990,761.351929 621.946289,757.584045 622.778259,752.145508 
	C623.535278,747.196838 628.594788,745.729309 632.681519,744.984253 
	C640.492310,743.560364 648.456909,742.645935 656.389343,742.338379 
	C661.826111,742.127625 663.238281,744.102661 662.621399,749.473389 
	C661.979431,755.062866 660.812927,760.592163 659.728027,766.507812 
z"/>
</svg>