<svg version="1.1" id="Layer_1" xmlns="http://www.w3.org/2000/svg" xmlns:xlink="http://www.w3.org/1999/xlink" x="0px" y="0px"
	 width="100%" viewBox="0 0 1080 1080" enable-background="new 0 0 1080 1080" xml:space="preserve">
<path fill="#79A0AB" opacity="1.000000" stroke="none" 
	d="
M679.000000,1081.000000 
	C452.692719,1081.000000 226.885452,1081.000000 1.039090,1081.000000 
	C1.039090,721.067627 1.039090,361.135193 1.039090,1.101403 
	C360.890839,1.101403 720.781738,1.101403 1080.836304,1.101403 
	C1080.836304,360.999939 1080.836304,720.999939 1080.836304,1081.000000 
	C947.134766,1081.000000 813.317383,1081.000000 679.000000,1081.000000 
M261.500122,717.292175 
	C486.640472,717.291931 711.780823,717.291748 936.921204,717.291260 
	C938.587646,717.291260 940.270508,717.137451 941.917419,717.315979 
	C946.217834,717.782104 947.208252,715.794861 947.086304,711.764954 
	C945.911926,672.951721 938.979553,635.289673 924.652954,599.128174 
	C896.901367,529.081177 850.485229,473.954987 788.688965,431.724091 
	C722.004822,386.152924 647.737122,362.545959 567.260681,357.737457 
	C521.661011,355.012909 476.681824,359.032349 432.415833,370.023743 
	C351.481354,390.120087 281.331055,429.090179 224.702744,490.932831 
	C179.256088,540.564270 149.541901,598.226135 138.711639,664.938904 
	C136.161499,680.647278 135.855179,696.721985 134.577805,712.633118 
	C134.315323,715.902405 135.798431,717.354431 139.301086,717.334900 
	C159.464767,717.222656 179.629791,717.217407 199.793335,717.341553 
	C203.487640,717.364258 204.644989,715.836792 204.994446,712.378845 
	C205.797638,704.430725 206.721375,696.477356 208.048828,688.602478 
	C216.487534,638.540527 231.847305,590.888611 258.405914,547.312134 
	C284.318329,504.796021 318.901093,471.845764 365.175537,452.089569 
	C367.070557,451.280518 369.039001,450.643494 371.543060,449.715027 
	C371.083374,450.857208 371.050110,451.293030 370.829132,451.433411 
	C369.005432,452.591827 367.180725,453.756165 365.293884,454.806549 
	C336.832489,470.650635 313.508057,492.166260 294.937073,518.841736 
	C274.204681,548.621826 260.678101,581.615540 252.025665,616.696533 
	C244.337646,647.867554 240.107254,679.492126 239.851807,711.639221 
	C239.817169,715.997009 241.076385,717.644836 245.506607,717.362305 
	C250.485672,717.044617 255.500763,717.291626 261.500122,717.292175 
M900.500000,795.156311 
	C935.999451,795.156128 971.498962,795.157166 1006.998413,795.153198 
	C1009.164795,795.152954 1011.334167,795.179749 1013.497009,795.080933 
	C1026.338013,794.494690 1036.475830,785.856567 1039.251343,773.177673 
	C1041.939453,760.898071 1036.525879,748.131165 1025.121826,743.045898 
	C1019.730164,740.641724 1013.230591,739.811096 1007.232300,739.808228 
	C696.401550,739.659973 385.570679,739.677368 74.739853,739.681763 
	C72.407143,739.681763 70.061653,739.599060 67.743874,739.802551 
	C56.182907,740.817505 47.971790,746.741943 43.872269,757.513672 
	C39.853996,768.071838 41.989769,777.857727 49.524387,786.318054 
	C56.061516,793.658325 64.603432,795.220520 74.006660,795.217896 
	C349.171112,795.141235 624.335571,795.156311 900.500000,795.156311 
M995.494629,847.923889 
	C999.659363,847.910889 1003.835999,848.095947 1007.986389,847.844971 
	C1017.752625,847.254456 1024.911499,839.800842 1025.051147,830.332642 
	C1025.195801,820.523743 1018.232483,812.922180 1008.258057,812.058411 
	C1006.602112,811.914978 1004.928650,811.944153 1003.263245,811.944214 
	C823.163086,811.951599 643.062988,811.963623 462.962830,811.978333 
	C460.963867,811.978516 458.955627,811.899597 456.967529,812.057129 
	C445.865540,812.936768 438.401306,823.148804 440.875031,834.002075 
	C442.944519,843.081726 449.978821,847.920471 461.193604,847.920715 
	C638.961304,847.924805 816.729065,847.923584 995.494629,847.923889 
M499.844025,315.505341 
	C505.566650,343.858337 536.817627,356.878082 560.318970,340.700317 
	C575.926208,329.956665 581.879700,309.244537 574.046326,292.942596 
	C565.135254,274.397888 545.355225,265.394745 526.588562,271.341583 
	C508.344604,277.122772 496.796753,295.723755 499.844025,315.505341 
M713.367249,143.859543 
	C698.014832,158.276855 693.882874,176.211746 698.723450,195.948883 
	C702.359558,210.774704 708.000305,225.098663 712.418091,239.745712 
	C717.286133,255.885559 720.521729,272.145966 712.784424,288.437897 
	C712.714722,288.584656 713.053467,288.925385 713.203064,289.174683 
	C737.671082,278.295929 749.928711,253.787476 743.339783,226.420044 
	C739.767944,211.584045 734.068298,197.270996 729.647217,182.625839 
	C724.877380,166.825806 721.641663,150.897507 728.820923,134.832809 
	C728.946289,134.552246 728.520203,134.025253 728.006470,132.771225 
	C723.102600,136.444138 718.487061,139.901062 713.367249,143.859543 
M757.004211,357.503265 
	C761.856140,361.200195 766.708069,364.897125 771.560059,368.594055 
	C771.977844,368.189758 772.395630,367.785431 772.813416,367.381134 
	C766.095764,352.548737 768.250000,337.641327 772.508362,322.919189 
	C775.602539,312.222137 779.306091,301.682617 783.163696,291.229980 
	C787.725769,278.868225 790.538574,266.282349 788.911560,253.092712 
	C786.516418,233.675995 774.623108,221.336853 757.830994,212.544907 
	C765.637329,229.626022 761.590332,246.307602 756.583862,262.806244 
	C752.962524,274.739990 748.222778,286.335205 744.627136,298.275665 
	C738.130554,319.849548 739.307678,340.105774 757.004211,357.503265 
M71.927597,494.640900 
	C73.102730,502.321320 73.190773,510.381500 75.709572,517.592590 
	C79.422249,528.221558 85.296700,538.075439 89.453041,548.575073 
	C93.656082,559.192688 97.629494,570.018494 100.263588,581.095398 
	C101.809090,587.594604 100.545525,594.761780 100.545525,601.621399 
	C100.524208,601.629944 101.367004,601.487610 101.963043,601.026428 
	C118.712471,588.065491 127.802757,571.865601 122.993950,550.210144 
	C120.367424,538.382141 114.633301,527.181885 109.764587,515.930481 
	C104.284615,503.266479 97.429970,491.054413 95.768990,477.140381 
	C94.902100,469.878448 95.616165,462.427795 95.616165,454.961517 
	C82.687805,464.325958 73.110664,476.336121 71.927597,494.640900 
M773.475220,369.432892 
	C773.475220,369.432892 773.481018,369.475372 773.475220,369.432892 
M98.565018,603.463623 
	C98.565018,603.463623 98.478943,603.511414 98.565018,603.463623 
z"/>
<path fill="#ECE0D6" opacity="1.000000" stroke="none" 
	d="
M261.000153,717.292603 
	C255.500763,717.291626 250.485672,717.044617 245.506607,717.362305 
	C241.076385,717.644836 239.817169,715.997009 239.851807,711.639221 
	C240.107254,679.492126 244.337646,647.867554 252.025665,616.696533 
	C260.678101,581.615540 274.204681,548.621826 294.937073,518.841736 
	C313.508057,492.166260 336.832489,470.650635 365.293884,454.806549 
	C367.180725,453.756165 369.005432,452.591827 370.829132,451.433411 
	C371.050110,451.293030 371.083374,450.857208 371.543060,449.715027 
	C369.039001,450.643494 367.070557,451.280518 365.175537,452.089569 
	C318.901093,471.845764 284.318329,504.796021 258.405914,547.312134 
	C231.847305,590.888611 216.487534,638.540527 208.048828,688.602478 
	C206.721375,696.477356 205.797638,704.430725 204.994446,712.378845 
	C204.644989,715.836792 203.487640,717.364258 199.793335,717.341553 
	C179.629791,717.217407 159.464767,717.222656 139.301086,717.334900 
	C135.798431,717.354431 134.315323,715.902405 134.577805,712.633118 
	C135.855179,696.721985 136.161499,680.647278 138.711639,664.938904 
	C149.541901,598.226135 179.256088,540.564270 224.702744,490.932831 
	C281.331055,429.090179 351.481354,390.120087 432.415833,370.023743 
	C476.681824,359.032349 521.661011,355.012909 567.260681,357.737457 
	C647.737122,362.545959 722.004822,386.152924 788.688965,431.724091 
	C850.485229,473.954987 896.901367,529.081177 924.652954,599.128174 
	C938.979553,635.289673 945.911926,672.951721 947.086304,711.764954 
	C947.208252,715.794861 946.217834,717.782104 941.917419,717.315979 
	C940.270508,717.137451 938.587646,717.291260 936.921204,717.291260 
	C711.780823,717.291748 486.640472,717.291931 261.000153,717.292603 
z"/>
<path fill="#ECE0D6" opacity="1.000000" stroke="none" 
	d="
M900.000000,795.156494 
	C624.335571,795.156311 349.171112,795.141235 74.006660,795.217896 
	C64.603432,795.220520 56.061516,793.658325 49.524387,786.318054 
	C41.989769,777.857727 39.853996,768.071838 43.872269,757.513672 
	C47.971790,746.741943 56.182907,740.817505 67.743874,739.802551 
	C70.061653,739.599060 72.407143,739.681763 74.739853,739.681763 
	C385.570679,739.677368 696.401550,739.659973 1007.232300,739.808228 
	C1013.230591,739.811096 1019.730164,740.641724 1025.121826,743.045898 
	C1036.525879,748.131165 1041.939453,760.898071 1039.251343,773.177673 
	C1036.475830,785.856567 1026.338013,794.494690 1013.497009,795.080933 
	C1011.334167,795.179749 1009.164795,795.152954 1006.998413,795.153198 
	C971.498962,795.157166 935.999451,795.156128 900.000000,795.156494 
z"/>
<path fill="#EBE0D6" opacity="1.000000" stroke="none" 
	d="
M994.995728,847.923767 
	C816.729065,847.923584 638.961304,847.924805 461.193604,847.920715 
	C449.978821,847.920471 442.944519,843.081726 440.875031,834.002075 
	C438.401306,823.148804 445.865540,812.936768 456.967529,812.057129 
	C458.955627,811.899597 460.963867,811.978516 462.962830,811.978333 
	C643.062988,811.963623 823.163086,811.951599 1003.263245,811.944214 
	C1004.928650,811.944153 1006.602112,811.914978 1008.258057,812.058411 
	C1018.232483,812.922180 1025.195801,820.523743 1025.051147,830.332642 
	C1024.911499,839.800842 1017.752625,847.254456 1007.986389,847.844971 
	C1003.835999,848.095947 999.659363,847.910889 994.995728,847.923767 
z"/>
<path fill="#EBE0D6" opacity="1.000000" stroke="none" 
	d="
M499.770264,315.082001 
	C496.796753,295.723755 508.344604,277.122772 526.588562,271.341583 
	C545.355225,265.394745 565.135254,274.397888 574.046326,292.942596 
	C581.879700,309.244537 575.926208,329.956665 560.318970,340.700317 
	C536.817627,356.878082 505.566650,343.858337 499.770264,315.082001 
z"/>
<path fill="#EBDFD5" opacity="1.000000" stroke="none" 
	d="
M713.619385,143.608765 
	C718.487061,139.901062 723.102600,136.444138 728.006470,132.771225 
	C728.520203,134.025253 728.946289,134.552246 728.820923,134.832809 
	C721.641663,150.897507 724.877380,166.825806 729.647217,182.625839 
	C734.068298,197.270996 739.767944,211.584045 743.339783,226.420044 
	C749.928711,253.787476 737.671082,278.295929 713.202332,289.175110 
	C713.053467,288.925385 712.714722,288.584656 712.784424,288.437897 
	C720.521729,272.145966 717.286133,255.885559 712.418091,239.745712 
	C708.000305,225.098663 702.359558,210.774704 698.723450,195.948883 
	C693.882874,176.211746 698.014832,158.276855 713.619385,143.608765 
z"/>
<path fill="#EBDFD5" opacity="1.000000" stroke="none" 
	d="
M756.751953,357.252747 
	C739.307678,340.105774 738.130554,319.849548 744.627136,298.275665 
	C748.222778,286.335205 752.962524,274.739990 756.583862,262.806244 
	C761.590332,246.307602 765.637329,229.626022 757.830994,212.544907 
	C774.623108,221.336853 786.516418,233.675995 788.911560,253.092712 
	C790.538574,266.282349 787.725769,278.868225 783.163696,291.229980 
	C779.306091,301.682617 775.602539,312.222137 772.508362,322.919189 
	C768.250000,337.641327 766.095764,352.548737 772.813416,367.381134 
	C772.395630,367.785431 771.977844,368.189758 771.560059,368.594055 
	C766.708069,364.897125 761.856140,361.200195 756.751953,357.252747 
z"/>
<path fill="#EBDFD5" opacity="1.000000" stroke="none" 
	d="
M71.933113,494.168701 
	C73.110664,476.336121 82.687805,464.325958 95.616165,454.961517 
	C95.616165,462.427795 94.902100,469.878448 95.768990,477.140381 
	C97.429970,491.054413 104.284615,503.266479 109.764587,515.930481 
	C114.633301,527.181885 120.367424,538.382141 122.993950,550.210144 
	C127.802757,571.865601 118.712471,588.065491 101.963043,601.026428 
	C101.367004,601.487610 100.524208,601.629944 100.545525,601.621399 
	C100.545525,594.761780 101.809090,587.594604 100.263588,581.095398 
	C97.629494,570.018494 93.656082,559.192688 89.453041,548.575073 
	C85.296700,538.075439 79.422249,528.221558 75.709572,517.592590 
	C73.190773,510.381500 73.102730,502.321320 71.933113,494.168701 
z"/>
<path fill="#EBDFD5" opacity="1.000000" stroke="none" 
	d="
M773.478149,369.454132 
	C773.481018,369.475372 773.475220,369.432892 773.478149,369.454132 
z"/>
<path fill="#EBDFD5" opacity="1.000000" stroke="none" 
	d="
M98.521980,603.487549 
	C98.478943,603.511414 98.565018,603.463623 98.521980,603.487549 
z"/>
</svg>